<svg xmlns="http://www.w3.org/2000/svg" width="64" height="64" viewBox="0 0 64 64">
	<title>Solarcast icon</title>
	<defs>
		<linearGradient id="sky" x1="0" y1="0" x2="0" y2="1">
			<stop offset="0%" stop-color="#60a5fa" />
			<stop offset="100%" stop-color="#bae6fd" />
		</linearGradient>
	</defs>
	<rect x="2" y="2" width="60" height="60" rx="14" fill="url(#sky)" />

	<g transform="translate(20 13)">
		<circle cx="14" cy="14" r="10" fill="#facc15" />
		<g stroke="#f59e0b" stroke-width="2" stroke-linecap="round">
			<line x1="14" y1="0.5" x2="14" y2="4.5" />
			<line x1="14" y1="23.5" x2="14" y2="27.5" />
			<line x1="0.5" y1="14" x2="4.5" y2="14" />
			<line x1="23.5" y1="14" x2="27.5" y2="14" />
			<line x1="4.1" y1="4.1" x2="7.1" y2="7.1" />
			<line x1="20.9" y1="20.9" x2="23.9" y2="23.9" />
			<line x1="20.9" y1="7.1" x2="23.9" y2="4.1" />
			<line x1="4.1" y1="23.9" x2="7.1" y2="20.9" />
		</g>
	</g>

	<g transform="translate(10 28)">
		<path
			d="M10 21c-4.9 0-8.9-3.6-8.9-8s3.5-7.8 8-8c1.2-3.8 4.9-6.5 9.2-6.5c4.2 0 7.8 2.5 9.1 6.1c0.6-0.1 1.3-0.2 2-0.2c4.3 0 7.8 3.1 7.8 6.9S33.8 18.2 29.5 18.2h-1.1c-0.9 1.7-2.8 2.8-4.9 2.8H10z"
			fill="#f8fafc"
		/>
		<path
			d="M10 21c-4.9 0-8.9-3.6-8.9-8s3.5-7.8 8-8c1.2-3.8 4.9-6.5 9.2-6.5c4.2 0 7.8 2.5 9.1 6.1c0.6-0.1 1.3-0.2 2-0.2c4.3 0 7.8 3.1 7.8 6.9S33.8 18.2 29.5 18.2h-1.1c-0.9 1.7-2.8 2.8-4.9 2.8H10z"
			fill="none"
			stroke="#cbd5e1"
			stroke-width="1.2"
		/>
	</g>
</svg>
